<svg width="371" height="18" viewBox="0 0 371 18" fill="none" xmlns="http://www.w3.org/2000/svg">
<rect width="371" height="18" fill="#AEAEAE"/>
<g id="&#236;&#158;&#165;&#237;&#145;&#156; &#235;&#170;&#168;&#236;&#133;&#152;&#236;&#154;&#169; &#235;&#179;&#181;&#236;&#130;&#172;">
<path d="M-659.029 -596.302C-659.029 -597.406 -658.134 -598.302 -657.029 -598.302H24215C24216.1 -598.302 24217 -597.406 24217 -596.302V2035.7C24217 2036.8 24216.1 2037.7 24215 2037.7H-657.029C-658.134 2037.7 -659.029 2036.8 -659.029 2035.7V-596.302Z" fill="black"/>
<path d="M-657.029 -598.302V-597.302H24215V-598.302V-599.302H-657.029V-598.302ZM24217 -596.302H24216V2035.7H24217H24218V-596.302H24217ZM24215 2037.7V2036.7H-657.029V2037.7V2038.7H24215V2037.7ZM-659.029 2035.7H-658.029V-596.302H-659.029H-660.029V2035.7H-659.029ZM-657.029 2037.7V2036.7C-657.582 2036.7 -658.029 2036.25 -658.029 2035.7H-659.029H-660.029C-660.029 2037.36 -658.686 2038.7 -657.029 2038.7V2037.7ZM24217 2035.7H24216C24216 2036.25 24215.5 2036.7 24215 2036.7V2037.7V2038.7C24216.6 2038.7 24218 2037.36 24218 2035.7H24217ZM24215 -598.302V-597.302C24215.5 -597.302 24216 -596.854 24216 -596.302H24217H24218C24218 -597.959 24216.6 -599.302 24215 -599.302V-598.302ZM-657.029 -598.302V-599.302C-658.686 -599.302 -660.029 -597.959 -660.029 -596.302H-659.029H-658.029C-658.029 -596.854 -657.582 -597.302 -657.029 -597.302V-598.302Z" fill="black" fill-opacity="0.1"/>
<g id="&#237;&#145;&#156;&#236;&#167;&#128;">
<rect width="1920" height="1080" transform="translate(-61.0293 -64.3018)" fill="white"/>
<rect width="1920" height="1080" transform="translate(-61.0293 -64.3018)" fill="url(#paint0_linear_816_171)"/>
<path id="BATON: The New Way of Robot Communication" opacity="0.5" d="M0.000942305 13.6982V0.828242H5.14894C6.78094 0.828242 7.98694 1.10424 8.76694 1.65624C9.55894 2.20824 9.95494 3.09024 9.95494 4.30224C9.95494 4.67424 9.89494 5.01624 9.77494 5.32824C9.65494 5.64024 9.48694 5.91624 9.27094 6.15624C9.05494 6.38424 8.78494 6.57624 8.46094 6.73224C8.13694 6.88824 7.77094 6.99624 7.36294 7.05624C8.25094 7.17624 8.97094 7.50024 9.52294 8.02824C10.0749 8.54424 10.3509 9.25224 10.3509 10.1522C10.3509 11.3402 9.95494 12.2282 9.16294 12.8162C8.38294 13.4042 7.23094 13.6982 5.70694 13.6982H0.000942305ZM2.05294 11.9342H5.54494C6.40894 11.9342 7.06894 11.7722 7.52494 11.4482C7.98094 11.1122 8.20894 10.6202 8.20894 9.97224C8.20894 9.32424 7.98094 8.82624 7.52494 8.47824C7.08094 8.13024 6.42094 7.95624 5.54494 7.95624H2.05294V11.9342ZM2.05294 6.33624H4.98694C5.89894 6.33624 6.59494 6.17424 7.07494 5.85024C7.55494 5.52624 7.79494 5.05824 7.79494 4.44624C7.79494 3.82224 7.56094 3.36024 7.09294 3.06024C6.63694 2.74824 5.93494 2.59224 4.98694 2.59224H2.05294V6.33624ZM10.0926 13.6982L14.9166 0.828242H17.6526L22.4586 13.6982H20.2266L19.0206 10.3682H13.5306L12.3246 13.6982H10.0926ZM14.1426 8.60424H18.4086L16.2846 2.68224L14.1426 8.60424ZM24.3961 13.6982V2.62824H20.2561V0.828242H30.5881V2.62824H26.4481V13.6982H24.3961ZM30.2715 7.27224C30.2715 6.25224 30.4215 5.32824 30.7215 4.50024C31.0215 3.67224 31.4475 2.97024 31.9995 2.39424C32.5515 1.81824 33.2115 1.37424 33.9795 1.06224C34.7595 0.750242 35.6235 0.594241 36.5715 0.594241C37.5195 0.594241 38.3835 0.750242 39.1635 1.06224C39.9435 1.37424 40.6095 1.81824 41.1615 2.39424C41.7135 2.97024 42.1395 3.67224 42.4395 4.50024C42.7395 5.32824 42.8895 6.25224 42.8895 7.27224C42.8895 8.30424 42.7395 9.23424 42.4395 10.0622C42.1395 10.8782 41.7135 11.5742 41.1615 12.1502C40.6215 12.7262 39.9555 13.1702 39.1635 13.4822C38.3835 13.7822 37.5195 13.9322 36.5715 13.9322C35.6235 13.9322 34.7595 13.7822 33.9795 13.4822C33.1995 13.1702 32.5335 12.7262 31.9815 12.1502C31.4415 11.5622 31.0215 10.8602 30.7215 10.0442C30.4215 9.22824 30.2715 8.30424 30.2715 7.27224ZM32.3955 7.27224C32.3955 8.01624 32.4915 8.69424 32.6835 9.30624C32.8875 9.90624 33.1695 10.4162 33.5295 10.8362C33.9015 11.2562 34.3395 11.5802 34.8435 11.8082C35.3595 12.0242 35.9355 12.1322 36.5715 12.1322C37.2075 12.1322 37.7835 12.0242 38.2995 11.8082C38.8155 11.5802 39.2535 11.2562 39.6135 10.8362C39.9855 10.4162 40.2675 9.90624 40.4595 9.30624C40.6635 8.70624 40.7655 8.02824 40.7655 7.27224C40.7655 6.50424 40.6635 5.82024 40.4595 5.22024C40.2555 4.62024 39.9735 4.11024 39.6135 3.69024C39.2535 3.27024 38.8155 2.95224 38.2995 2.73624C37.7835 2.50824 37.2075 2.39424 36.5715 2.39424C35.9475 2.39424 35.3775 2.50824 34.8615 2.73624C34.3455 2.95224 33.9075 3.27024 33.5475 3.69024C33.1875 4.11024 32.9055 4.62024 32.7015 5.22024C32.4975 5.82024 32.3955 6.50424 32.3955 7.27224ZM43.9305 13.6982V0.828242H46.4865L52.7865 11.1422V0.828242H54.8385V13.6982H52.1745L45.9825 3.65424V13.6982H43.9305ZM56.1535 13.6982V11.4662H58.4395V13.6982H56.1535ZM56.1535 6.19224V3.96024H58.4395V6.19224H56.1535ZM66.3833 13.6982V2.62824H62.2433V0.828242H72.5753V2.62824H68.4353V13.6982H66.3833ZM73.3016 13.6982V0.468242H75.3356V5.43624C75.4676 5.16024 75.6356 4.91424 75.8396 4.69824C76.0436 4.48224 76.2716 4.30224 76.5236 4.15824C76.7876 4.01424 77.0696 3.90624 77.3696 3.83424C77.6816 3.76224 78.0116 3.72624 78.3596 3.72624C78.8876 3.72624 79.3676 3.81024 79.7996 3.97824C80.2316 4.14624 80.5976 4.39224 80.8976 4.71624C81.1976 5.02824 81.4256 5.41824 81.5816 5.88624C81.7496 6.34224 81.8336 6.85224 81.8336 7.41624V13.6982H79.7996V8.11824C79.7996 7.68624 79.7576 7.30824 79.6736 6.98424C79.5896 6.64824 79.4636 6.37224 79.2956 6.15624C79.1276 5.92824 78.9176 5.76024 78.6656 5.65224C78.4136 5.54424 78.1136 5.49024 77.7656 5.49024C77.4056 5.49024 77.0696 5.55624 76.7576 5.68824C76.4576 5.80824 76.1996 5.98224 75.9836 6.21024C75.7796 6.42624 75.6176 6.69624 75.4976 7.02024C75.3896 7.34424 75.3356 7.71024 75.3356 8.11824V13.6982H73.3016ZM82.6564 8.82024C82.6564 8.05224 82.7704 7.36224 82.9984 6.75024C83.2264 6.12624 83.5504 5.59224 83.9704 5.14824C84.3904 4.69224 84.9004 4.34424 85.5004 4.10424C86.1004 3.85224 86.7664 3.72624 87.4984 3.72624C88.2184 3.72624 88.8664 3.84624 89.4424 4.08624C90.0304 4.32624 90.5284 4.66224 90.9364 5.09424C91.3564 5.51424 91.6744 6.03024 91.8904 6.64224C92.1184 7.24224 92.2324 7.91424 92.2324 8.65824V9.41424H84.7444C84.7924 9.83424 84.8884 10.2242 85.0324 10.5842C85.1884 10.9322 85.3804 11.2262 85.6084 11.4662C85.8364 11.7062 86.1124 11.8922 86.4364 12.0242C86.7724 12.1562 87.1384 12.2222 87.5344 12.2222C87.8464 12.2222 88.1284 12.1862 88.3804 12.1142C88.6324 12.0422 88.8604 11.9342 89.0644 11.7902C89.2684 11.6462 89.4424 11.4722 89.5864 11.2682C89.7424 11.0522 89.8684 10.8182 89.9644 10.5662H92.1064C91.8304 11.5982 91.2904 12.4202 90.4864 13.0322C89.6824 13.6322 88.6924 13.9322 87.5164 13.9322C86.7724 13.9322 86.1004 13.8062 85.5004 13.5542C84.9004 13.3022 84.3904 12.9542 83.9704 12.5102C83.5504 12.0542 83.2264 11.5142 82.9984 10.8902C82.7704 10.2662 82.6564 9.57624 82.6564 8.82024ZM84.7804 8.04624H90.1624C90.1144 7.65024 90.0244 7.29024 89.8924 6.96624C89.7604 6.64224 89.5804 6.36624 89.3524 6.13824C89.1244 5.91024 88.8544 5.73624 88.5424 5.61624C88.2424 5.48424 87.9004 5.41824 87.5164 5.41824C87.1204 5.41824 86.7664 5.48424 86.4544 5.61624C86.1544 5.73624 85.8844 5.91024 85.6444 6.13824C85.4164 6.36624 85.2244 6.64224 85.0684 6.96624C84.9244 7.29024 84.8284 7.65024 84.7804 8.04624ZM96.3421 13.6982V0.828242H98.8981L105.198 11.1422V0.828242H107.25V13.6982H104.586L98.3941 3.65424V13.6982H96.3421ZM108.295 8.82024C108.295 8.05224 108.409 7.36224 108.637 6.75024C108.865 6.12624 109.189 5.59224 109.609 5.14824C110.029 4.69224 110.539 4.34424 111.139 4.10424C111.739 3.85224 112.405 3.72624 113.137 3.72624C113.857 3.72624 114.505 3.84624 115.081 4.08624C115.669 4.32624 116.167 4.66224 116.575 5.09424C116.995 5.51424 117.313 6.03024 117.529 6.64224C117.757 7.24224 117.871 7.91424 117.871 8.65824V9.41424H110.383C110.431 9.83424 110.527 10.2242 110.671 10.5842C110.827 10.9322 111.019 11.2262 111.247 11.4662C111.475 11.7062 111.751 11.8922 112.075 12.0242C112.411 12.1562 112.777 12.2222 113.173 12.2222C113.485 12.2222 113.767 12.1862 114.019 12.1142C114.271 12.0422 114.499 11.9342 114.703 11.7902C114.907 11.6462 115.081 11.4722 115.225 11.2682C115.381 11.0522 115.507 10.8182 115.603 10.5662H117.745C117.469 11.5982 116.929 12.4202 116.125 13.0322C115.321 13.6322 114.331 13.9322 113.155 13.9322C112.411 13.9322 111.739 13.8062 111.139 13.5542C110.539 13.3022 110.029 12.9542 109.609 12.5102C109.189 12.0542 108.865 11.5142 108.637 10.8902C108.409 10.2662 108.295 9.57624 108.295 8.82024ZM110.419 8.04624H115.801C115.753 7.65024 115.663 7.29024 115.531 6.96624C115.399 6.64224 115.219 6.36624 114.991 6.13824C114.763 5.91024 114.493 5.73624 114.181 5.61624C113.881 5.48424 113.539 5.41824 113.155 5.41824C112.759 5.41824 112.405 5.48424 112.093 5.61624C111.793 5.73624 111.523 5.91024 111.283 6.13824C111.055 6.36624 110.863 6.64224 110.707 6.96624C110.563 7.29024 110.467 7.65024 110.419 8.04624ZM120.47 13.6982L117.518 3.96024H119.66L121.766 11.7002L123.89 3.96024H126.122L128.282 11.7002L130.37 3.96024H132.494L129.578 13.6982H127.13L125.006 6.42624L122.9 13.6982H120.47ZM138.412 13.6982L134.902 0.828242H137.098L139.726 11.3582L142.21 0.828242H144.64L147.16 11.3582L149.77 0.828242H151.966L148.474 13.6982H145.936L143.434 3.78024L140.968 13.6982H138.412ZM151.133 11.1782C151.133 10.3862 151.403 9.76224 151.943 9.30624C152.495 8.83824 153.335 8.50224 154.463 8.29824L158.027 7.66824V7.57824C158.027 6.85824 157.823 6.31224 157.415 5.94024C157.007 5.56824 156.443 5.38224 155.723 5.38224C155.003 5.38224 154.445 5.56224 154.049 5.92224C153.653 6.27024 153.413 6.76224 153.329 7.39824H151.259C151.307 6.82224 151.445 6.31224 151.673 5.86824C151.913 5.41224 152.225 5.02824 152.609 4.71624C152.993 4.39224 153.449 4.14624 153.977 3.97824C154.505 3.81024 155.099 3.72624 155.759 3.72624C157.127 3.72624 158.183 4.08024 158.927 4.78824C159.671 5.48424 160.043 6.46824 160.043 7.74024V13.6982H158.189L158.135 12.2042C157.991 12.4562 157.793 12.6902 157.541 12.9062C157.301 13.1102 157.019 13.2902 156.695 13.4462C156.383 13.5902 156.029 13.7042 155.633 13.7882C155.249 13.8842 154.853 13.9322 154.445 13.9322C153.977 13.9322 153.539 13.8722 153.131 13.7522C152.735 13.6442 152.387 13.4762 152.087 13.2482C151.799 13.0202 151.565 12.7322 151.385 12.3842C151.217 12.0362 151.133 11.6342 151.133 11.1782ZM153.239 10.9802C153.239 11.4242 153.407 11.7602 153.743 11.9882C154.079 12.2042 154.517 12.3122 155.057 12.3122C155.513 12.3122 155.921 12.2462 156.281 12.1142C156.653 11.9822 156.965 11.7962 157.217 11.5562C157.469 11.3162 157.667 11.0342 157.811 10.7102C157.955 10.3742 158.027 10.0142 158.027 9.63024V9.03624L154.931 9.61224C154.295 9.72024 153.851 9.88824 153.599 10.1162C153.359 10.3322 153.239 10.6202 153.239 10.9802ZM159.976 17.0822V15.3362C160.18 15.3602 160.372 15.3782 160.552 15.3902C160.744 15.4142 160.936 15.4262 161.128 15.4262C161.344 15.4262 161.56 15.4082 161.776 15.3722C161.992 15.3482 162.202 15.2822 162.406 15.1742C162.61 15.0782 162.79 14.9402 162.946 14.7602C163.114 14.5922 163.252 14.3642 163.36 14.0762L163.72 13.2122L163.504 14.5622L159.742 3.96024H161.884L164.458 11.7722L167.032 3.96024H169.174L165.574 14.1122C165.37 14.6882 165.13 15.1682 164.854 15.5522C164.578 15.9482 164.254 16.2662 163.882 16.5062C163.522 16.7462 163.126 16.9142 162.694 17.0102C162.262 17.1182 161.794 17.1722 161.29 17.1722C161.11 17.1722 160.9 17.1662 160.66 17.1542C160.432 17.1422 160.204 17.1182 159.976 17.0822ZM172.238 8.82024C172.238 8.06424 172.352 7.37424 172.58 6.75024C172.808 6.12624 173.138 5.59224 173.57 5.14824C174.002 4.69224 174.518 4.34424 175.118 4.10424C175.718 3.85224 176.39 3.72624 177.134 3.72624C177.866 3.72624 178.532 3.85224 179.132 4.10424C179.732 4.34424 180.248 4.69224 180.68 5.14824C181.112 5.59224 181.442 6.12624 181.67 6.75024C181.91 7.37424 182.03 8.06424 182.03 8.82024C182.03 9.57624 181.91 10.2662 181.67 10.8902C181.442 11.5142 181.112 12.0542 180.68 12.5102C180.248 12.9542 179.732 13.3022 179.132 13.5542C178.532 13.8062 177.866 13.9322 177.134 13.9322C176.39 13.9322 175.718 13.8062 175.118 13.5542C174.518 13.3022 174.002 12.9542 173.57 12.5102C173.138 12.0542 172.808 11.5142 172.58 10.8902C172.352 10.2662 172.238 9.57624 172.238 8.82024ZM174.29 8.82024C174.29 9.32424 174.356 9.78624 174.488 10.2062C174.62 10.6142 174.806 10.9682 175.046 11.2682C175.286 11.5682 175.58 11.7962 175.928 11.9522C176.288 12.1082 176.69 12.1862 177.134 12.1862C177.578 12.1862 177.974 12.1082 178.322 11.9522C178.67 11.7962 178.964 11.5682 179.204 11.2682C179.456 10.9682 179.642 10.6142 179.762 10.2062C179.894 9.78624 179.96 9.32424 179.96 8.82024C179.96 8.31624 179.894 7.86024 179.762 7.45224C179.642 7.03224 179.456 6.67824 179.204 6.39024C178.964 6.09024 178.67 5.86224 178.322 5.70624C177.974 5.53824 177.578 5.45424 177.134 5.45424C176.69 5.45424 176.288 5.53824 175.928 5.70624C175.58 5.86224 175.286 6.09024 175.046 6.39024C174.806 6.67824 174.62 7.03224 174.488 7.45224C174.356 7.86024 174.29 8.31624 174.29 8.82024ZM183.534 13.6982V5.68824H181.806V3.96024H183.534V3.31224C183.534 2.76024 183.606 2.28024 183.75 1.87224C183.906 1.45224 184.14 1.11024 184.452 0.846241C184.764 0.570241 185.154 0.360242 185.622 0.216242C186.09 0.0722417 186.636 0.000241518 187.26 0.000241518C187.512 0.000241518 187.782 0.0122414 188.07 0.0362411C188.37 0.0602415 188.688 0.0962417 189.024 0.144242V1.85424C188.784 1.79424 188.55 1.75824 188.322 1.74624C188.094 1.72224 187.86 1.71024 187.62 1.71024C187.248 1.71024 186.93 1.74024 186.666 1.80024C186.414 1.86024 186.204 1.95624 186.036 2.08824C185.868 2.22024 185.748 2.38824 185.676 2.59224C185.604 2.79624 185.568 3.04824 185.568 3.34824V3.96024H189.006V5.68824H185.568V13.6982H183.534ZM192.964 13.6982V0.828242H198.598C200.134 0.828242 201.286 1.17024 202.054 1.85424C202.822 2.52624 203.206 3.48024 203.206 4.71624C203.206 5.95224 202.822 6.90624 202.054 7.57824C201.286 8.23824 200.134 8.56824 198.598 8.56824H195.016V13.6982H192.964ZM195.016 6.80424H198.472C199.336 6.80424 199.984 6.64824 200.416 6.33624C200.86 6.01224 201.082 5.47824 201.082 4.73424C201.082 3.99024 200.86 3.45624 200.416 3.13224C199.984 2.79624 199.336 2.62824 198.472 2.62824H195.016V6.80424ZM201.19 13.6982L198.13 8.10024H200.326L203.584 13.6982H201.19ZM203.493 8.82024C203.493 8.06424 203.607 7.37424 203.835 6.75024C204.063 6.12624 204.393 5.59224 204.825 5.14824C205.257 4.69224 205.773 4.34424 206.373 4.10424C206.973 3.85224 207.645 3.72624 208.389 3.72624C209.121 3.72624 209.787 3.85224 210.387 4.10424C210.987 4.34424 211.503 4.69224 211.935 5.14824C212.367 5.59224 212.697 6.12624 212.925 6.75024C213.165 7.37424 213.285 8.06424 213.285 8.82024C213.285 9.57624 213.165 10.2662 212.925 10.8902C212.697 11.5142 212.367 12.0542 211.935 12.5102C211.503 12.9542 210.987 13.3022 210.387 13.5542C209.787 13.8062 209.121 13.9322 208.389 13.9322C207.645 13.9322 206.973 13.8062 206.373 13.5542C205.773 13.3022 205.257 12.9542 204.825 12.5102C204.393 12.0542 204.063 11.5142 203.835 10.8902C203.607 10.2662 203.493 9.57624 203.493 8.82024ZM205.545 8.82024C205.545 9.32424 205.611 9.78624 205.743 10.2062C205.875 10.6142 206.061 10.9682 206.301 11.2682C206.541 11.5682 206.835 11.7962 207.183 11.9522C207.543 12.1082 207.945 12.1862 208.389 12.1862C208.833 12.1862 209.229 12.1082 209.577 11.9522C209.925 11.7962 210.219 11.5682 210.459 11.2682C210.711 10.9682 210.897 10.6142 211.017 10.2062C211.149 9.78624 211.215 9.32424 211.215 8.82024C211.215 8.31624 211.149 7.86024 211.017 7.45224C210.897 7.03224 210.711 6.67824 210.459 6.39024C210.219 6.09024 209.925 5.86224 209.577 5.70624C209.229 5.53824 208.833 5.45424 208.389 5.45424C207.945 5.45424 207.543 5.53824 207.183 5.70624C206.835 5.86224 206.541 6.09024 206.301 6.39024C206.061 6.67824 205.875 7.03224 205.743 7.45224C205.611 7.86024 205.545 8.31624 205.545 8.82024ZM214.161 13.6982V0.468242H216.159V5.50824C216.447 4.93224 216.879 4.49424 217.455 4.19424C218.031 3.88224 218.679 3.72624 219.399 3.72624C220.035 3.72624 220.611 3.85224 221.127 4.10424C221.643 4.34424 222.087 4.68624 222.459 5.13024C222.843 5.57424 223.137 6.11424 223.341 6.75024C223.545 7.37424 223.647 8.07024 223.647 8.83824C223.647 9.59424 223.545 10.2902 223.341 10.9262C223.137 11.5502 222.849 12.0842 222.477 12.5282C222.105 12.9722 221.655 13.3202 221.127 13.5722C220.611 13.8122 220.035 13.9322 219.399 13.9322C218.679 13.9322 218.019 13.7762 217.419 13.4642C216.819 13.1522 216.369 12.6842 216.069 12.0602L216.015 13.6982H214.161ZM216.159 8.80224C216.159 9.33024 216.219 9.80424 216.339 10.2242C216.459 10.6442 216.639 11.0042 216.879 11.3042C217.119 11.5922 217.407 11.8142 217.743 11.9702C218.091 12.1142 218.481 12.1862 218.913 12.1862C219.345 12.1862 219.723 12.1142 220.047 11.9702C220.383 11.8142 220.665 11.5922 220.893 11.3042C221.121 11.0162 221.289 10.6622 221.397 10.2422C221.517 9.82224 221.577 9.34824 221.577 8.82024C221.577 8.28024 221.517 7.80624 221.397 7.39824C221.289 6.97824 221.121 6.62424 220.893 6.33624C220.665 6.04824 220.383 5.83224 220.047 5.68824C219.723 5.53224 219.351 5.45424 218.931 5.45424C218.487 5.45424 218.091 5.53224 217.743 5.68824C217.407 5.84424 217.119 6.06624 216.879 6.35424C216.639 6.64224 216.459 6.99624 216.339 7.41624C216.219 7.82424 216.159 8.28624 216.159 8.80224ZM224.289 8.82024C224.289 8.06424 224.403 7.37424 224.631 6.75024C224.859 6.12624 225.189 5.59224 225.621 5.14824C226.053 4.69224 226.569 4.34424 227.169 4.10424C227.769 3.85224 228.441 3.72624 229.185 3.72624C229.917 3.72624 230.583 3.85224 231.183 4.10424C231.783 4.34424 232.299 4.69224 232.731 5.14824C233.163 5.59224 233.493 6.12624 233.721 6.75024C233.961 7.37424 234.081 8.06424 234.081 8.82024C234.081 9.57624 233.961 10.2662 233.721 10.8902C233.493 11.5142 233.163 12.0542 232.731 12.5102C232.299 12.9542 231.783 13.3022 231.183 13.5542C230.583 13.8062 229.917 13.9322 229.185 13.9322C228.441 13.9322 227.769 13.8062 227.169 13.5542C226.569 13.3022 226.053 12.9542 225.621 12.5102C225.189 12.0542 224.859 11.5142 224.631 10.8902C224.403 10.2662 224.289 9.57624 224.289 8.82024ZM226.341 8.82024C226.341 9.32424 226.407 9.78624 226.539 10.2062C226.671 10.6142 226.857 10.9682 227.097 11.2682C227.337 11.5682 227.631 11.7962 227.979 11.9522C228.339 12.1082 228.741 12.1862 229.185 12.1862C229.629 12.1862 230.025 12.1082 230.373 11.9522C230.721 11.7962 231.015 11.5682 231.255 11.2682C231.507 10.9682 231.693 10.6142 231.813 10.2062C231.945 9.78624 232.011 9.32424 232.011 8.82024C232.011 8.31624 231.945 7.86024 231.813 7.45224C231.693 7.03224 231.507 6.67824 231.255 6.39024C231.015 6.09024 230.721 5.86224 230.373 5.70624C230.025 5.53824 229.629 5.45424 229.185 5.45424C228.741 5.45424 228.339 5.53824 227.979 5.70624C227.631 5.86224 227.337 6.09024 227.097 6.39024C226.857 6.67824 226.671 7.03224 226.539 7.45224C226.407 7.86024 226.341 8.31624 226.341 8.82024ZM235.405 10.3322V5.68824H233.857V3.96024H235.405V1.49424H237.439V3.96024H240.877V5.68824H237.439V10.3142C237.439 10.6502 237.475 10.9382 237.547 11.1782C237.619 11.4062 237.733 11.5922 237.889 11.7362C238.045 11.8802 238.243 11.9822 238.483 12.0422C238.735 12.1022 239.035 12.1322 239.383 12.1322C239.587 12.1322 239.815 12.1202 240.067 12.0962C240.331 12.0722 240.601 12.0362 240.877 11.9882V13.7162C240.481 13.7882 240.115 13.8422 239.779 13.8782C239.455 13.9142 239.149 13.9322 238.861 13.9322C238.273 13.9322 237.763 13.8602 237.331 13.7162C236.899 13.5722 236.539 13.3562 236.251 13.0682C235.963 12.7682 235.747 12.3902 235.603 11.9342C235.471 11.4782 235.405 10.9442 235.405 10.3322ZM244.426 7.27224C244.426 6.25224 244.57 5.33424 244.858 4.51824C245.146 3.69024 245.554 2.98824 246.082 2.41224C246.622 1.83624 247.27 1.39224 248.026 1.08024C248.782 0.756241 249.628 0.594241 250.564 0.594241C251.356 0.594241 252.082 0.708241 252.742 0.936241C253.414 1.15224 254.002 1.47024 254.506 1.89024C255.01 2.31024 255.436 2.82624 255.784 3.43824C256.132 4.05024 256.378 4.74624 256.522 5.52624H254.344C254.116 4.53024 253.672 3.76224 253.012 3.22224C252.352 2.67024 251.524 2.39424 250.528 2.39424C249.94 2.39424 249.4 2.50824 248.908 2.73624C248.416 2.96424 247.996 3.28824 247.648 3.70824C247.3 4.12824 247.03 4.63824 246.838 5.23824C246.646 5.82624 246.55 6.50424 246.55 7.27224C246.55 8.01624 246.646 8.68824 246.838 9.28824C247.03 9.88824 247.3 10.3982 247.648 10.8182C247.996 11.2382 248.416 11.5622 248.908 11.7902C249.4 12.0182 249.952 12.1322 250.564 12.1322C251.596 12.1322 252.442 11.8382 253.102 11.2502C253.774 10.6502 254.206 9.80424 254.398 8.71224H256.576C256.456 9.54024 256.228 10.2782 255.892 10.9262C255.556 11.5622 255.124 12.1022 254.596 12.5462C254.08 12.9902 253.48 13.3322 252.796 13.5722C252.112 13.8122 251.362 13.9322 250.546 13.9322C249.622 13.9322 248.782 13.7762 248.026 13.4642C247.27 13.1522 246.622 12.7082 246.082 12.1322C245.554 11.5562 245.146 10.8602 244.858 10.0442C244.57 9.22824 244.426 8.30424 244.426 7.27224ZM257.232 8.82024C257.232 8.06424 257.346 7.37424 257.574 6.75024C257.802 6.12624 258.132 5.59224 258.564 5.14824C258.996 4.69224 259.512 4.34424 260.112 4.10424C260.712 3.85224 261.384 3.72624 262.128 3.72624C262.86 3.72624 263.526 3.85224 264.126 4.10424C264.726 4.34424 265.242 4.69224 265.674 5.14824C266.106 5.59224 266.436 6.12624 266.664 6.75024C266.904 7.37424 267.024 8.06424 267.024 8.82024C267.024 9.57624 266.904 10.2662 266.664 10.8902C266.436 11.5142 266.106 12.0542 265.674 12.5102C265.242 12.9542 264.726 13.3022 264.126 13.5542C263.526 13.8062 262.86 13.9322 262.128 13.9322C261.384 13.9322 260.712 13.8062 260.112 13.5542C259.512 13.3022 258.996 12.9542 258.564 12.5102C258.132 12.0542 257.802 11.5142 257.574 10.8902C257.346 10.2662 257.232 9.57624 257.232 8.82024ZM259.284 8.82024C259.284 9.32424 259.35 9.78624 259.482 10.2062C259.614 10.6142 259.8 10.9682 260.04 11.2682C260.28 11.5682 260.574 11.7962 260.922 11.9522C261.282 12.1082 261.684 12.1862 262.128 12.1862C262.572 12.1862 262.968 12.1082 263.316 11.9522C263.664 11.7962 263.958 11.5682 264.198 11.2682C264.45 10.9682 264.636 10.6142 264.756 10.2062C264.888 9.78624 264.954 9.32424 264.954 8.82024C264.954 8.31624 264.888 7.86024 264.756 7.45224C264.636 7.03224 264.45 6.67824 264.198 6.39024C263.958 6.09024 263.664 5.86224 263.316 5.70624C262.968 5.53824 262.572 5.45424 262.128 5.45424C261.684 5.45424 261.282 5.53824 260.922 5.70624C260.574 5.86224 260.28 6.09024 260.04 6.39024C259.8 6.67824 259.614 7.03224 259.482 7.45224C259.35 7.86024 259.284 8.31624 259.284 8.82024ZM267.899 13.6982V3.96024H269.753L269.807 5.68824C269.939 5.36424 270.101 5.08224 270.293 4.84224C270.485 4.59024 270.707 4.38624 270.959 4.23024C271.211 4.06224 271.493 3.93624 271.805 3.85224C272.117 3.76824 272.447 3.72624 272.795 3.72624C273.179 3.72624 273.527 3.77424 273.839 3.87024C274.163 3.96624 274.451 4.10424 274.703 4.28424C274.967 4.45224 275.195 4.66824 275.387 4.93224C275.591 5.19624 275.747 5.49024 275.855 5.81424C275.975 5.47824 276.131 5.17824 276.323 4.91424C276.527 4.65024 276.755 4.43424 277.007 4.26624C277.271 4.08624 277.565 3.95424 277.889 3.87024C278.213 3.77424 278.567 3.72624 278.951 3.72624C279.455 3.72624 279.911 3.81024 280.319 3.97824C280.739 4.14624 281.093 4.39224 281.381 4.71624C281.681 5.02824 281.909 5.41824 282.065 5.88624C282.221 6.34224 282.299 6.85224 282.299 7.41624V13.6982H280.265V8.11824C280.265 7.68624 280.223 7.30824 280.139 6.98424C280.067 6.64824 279.953 6.37224 279.797 6.15624C279.653 5.92824 279.461 5.76024 279.221 5.65224C278.981 5.54424 278.699 5.49024 278.375 5.49024C278.027 5.49024 277.715 5.55624 277.439 5.68824C277.163 5.80824 276.923 5.98224 276.719 6.21024C276.527 6.42624 276.377 6.69624 276.269 7.02024C276.161 7.34424 276.107 7.71024 276.107 8.11824V13.6982H274.091V8.11824C274.091 7.68624 274.049 7.30824 273.965 6.98424C273.893 6.64824 273.779 6.37224 273.623 6.15624C273.467 5.92824 273.269 5.76024 273.029 5.65224C272.801 5.54424 272.519 5.49024 272.183 5.49024C271.847 5.49024 271.541 5.55624 271.265 5.68824C270.989 5.80824 270.749 5.98224 270.545 6.21024C270.341 6.42624 270.185 6.69624 270.077 7.02024C269.981 7.34424 269.933 7.71024 269.933 8.11824V13.6982H267.899ZM283.377 13.6982V3.96024H285.231L285.285 5.68824C285.417 5.36424 285.579 5.08224 285.771 4.84224C285.963 4.59024 286.185 4.38624 286.437 4.23024C286.689 4.06224 286.971 3.93624 287.283 3.85224C287.595 3.76824 287.925 3.72624 288.273 3.72624C288.657 3.72624 289.005 3.77424 289.317 3.87024C289.641 3.96624 289.929 4.10424 290.181 4.28424C290.445 4.45224 290.673 4.66824 290.865 4.93224C291.069 5.19624 291.225 5.49024 291.333 5.81424C291.453 5.47824 291.609 5.17824 291.801 4.91424C292.005 4.65024 292.233 4.43424 292.485 4.26624C292.749 4.08624 293.043 3.95424 293.367 3.87024C293.691 3.77424 294.045 3.72624 294.429 3.72624C294.933 3.72624 295.389 3.81024 295.797 3.97824C296.217 4.14624 296.571 4.39224 296.859 4.71624C297.159 5.02824 297.387 5.41824 297.543 5.88624C297.699 6.34224 297.777 6.85224 297.777 7.41624V13.6982H295.743V8.11824C295.743 7.68624 295.701 7.30824 295.617 6.98424C295.545 6.64824 295.431 6.37224 295.275 6.15624C295.131 5.92824 294.939 5.76024 294.699 5.65224C294.459 5.54424 294.177 5.49024 293.853 5.49024C293.505 5.49024 293.193 5.55624 292.917 5.68824C292.641 5.80824 292.401 5.98224 292.197 6.21024C292.005 6.42624 291.855 6.69624 291.747 7.02024C291.639 7.34424 291.585 7.71024 291.585 8.11824V13.6982H289.569V8.11824C289.569 7.68624 289.527 7.30824 289.443 6.98424C289.371 6.64824 289.257 6.37224 289.101 6.15624C288.945 5.92824 288.747 5.76024 288.507 5.65224C288.279 5.54424 287.997 5.49024 287.661 5.49024C287.325 5.49024 287.019 5.55624 286.743 5.68824C286.467 5.80824 286.227 5.98224 286.023 6.21024C285.819 6.42624 285.663 6.69624 285.555 7.02024C285.459 7.34424 285.411 7.71024 285.411 8.11824V13.6982H283.377ZM298.783 10.2242V3.96024H300.817V9.54024C300.817 9.97224 300.859 10.3562 300.943 10.6922C301.027 11.0162 301.153 11.2862 301.321 11.5022C301.489 11.7182 301.699 11.8802 301.951 11.9882C302.203 12.0962 302.503 12.1502 302.851 12.1502C303.211 12.1502 303.541 12.0902 303.841 11.9702C304.153 11.8502 304.411 11.6762 304.615 11.4482C304.831 11.2202 304.993 10.9502 305.101 10.6382C305.221 10.3142 305.281 9.94824 305.281 9.54024V3.96024H307.315V13.6982H305.461L305.389 11.9522C305.269 12.2762 305.107 12.5582 304.903 12.7982C304.711 13.0382 304.477 13.2422 304.201 13.4102C303.937 13.5782 303.637 13.7042 303.301 13.7882C302.977 13.8842 302.629 13.9322 302.257 13.9322C301.729 13.9322 301.249 13.8482 300.817 13.6802C300.385 13.5122 300.019 13.2722 299.719 12.9602C299.419 12.6362 299.185 12.2462 299.017 11.7902C298.861 11.3222 298.783 10.8002 298.783 10.2242ZM308.48 13.6982V3.96024H310.334L310.388 5.70624C310.508 5.38224 310.67 5.10024 310.874 4.86024C311.078 4.60824 311.312 4.39824 311.576 4.23024C311.852 4.06224 312.152 3.93624 312.476 3.85224C312.812 3.76824 313.166 3.72624 313.538 3.72624C314.066 3.72624 314.546 3.81024 314.978 3.97824C315.41 4.14624 315.77 4.39224 316.058 4.71624C316.358 5.02824 316.586 5.41824 316.742 5.88624C316.91 6.34224 316.994 6.85224 316.994 7.41624V13.6982H314.978V8.11824C314.978 7.68624 314.936 7.30824 314.852 6.98424C314.768 6.64824 314.642 6.37224 314.474 6.15624C314.306 5.92824 314.096 5.76024 313.844 5.65224C313.592 5.54424 313.292 5.49024 312.944 5.49024C312.572 5.49024 312.236 5.55624 311.936 5.68824C311.636 5.80824 311.378 5.98224 311.162 6.21024C310.958 6.42624 310.796 6.69624 310.676 7.02024C310.568 7.34424 310.514 7.71024 310.514 8.11824V13.6982H308.48ZM318.14 13.6982V3.96024H320.138V13.6982H318.14ZM318.086 2.70024V0.576242H320.21V2.70024H318.086ZM321.113 8.82024C321.113 8.05224 321.227 7.36224 321.455 6.75024C321.683 6.12624 322.007 5.59224 322.427 5.14824C322.859 4.69224 323.375 4.34424 323.975 4.10424C324.587 3.85224 325.259 3.72624 325.991 3.72624C326.615 3.72624 327.185 3.81624 327.701 3.99624C328.229 4.16424 328.697 4.41624 329.105 4.75224C329.513 5.07624 329.849 5.47224 330.113 5.94024C330.389 6.39624 330.581 6.90624 330.689 7.47024H328.583C328.511 7.15824 328.397 6.88224 328.241 6.64224C328.085 6.39024 327.899 6.18024 327.683 6.01224C327.467 5.83224 327.215 5.69424 326.927 5.59824C326.639 5.50224 326.327 5.45424 325.991 5.45424C325.547 5.45424 325.151 5.53824 324.803 5.70624C324.455 5.86224 324.155 6.08424 323.903 6.37224C323.663 6.66024 323.477 7.01424 323.345 7.43424C323.225 7.84224 323.165 8.30424 323.165 8.82024C323.165 9.32424 323.225 9.78624 323.345 10.2062C323.477 10.6142 323.663 10.9682 323.903 11.2682C324.155 11.5682 324.455 11.7962 324.803 11.9522C325.163 12.1082 325.565 12.1862 326.009 12.1862C326.357 12.1862 326.675 12.1382 326.963 12.0422C327.263 11.9342 327.521 11.7842 327.737 11.5922C327.953 11.4002 328.139 11.1722 328.295 10.9082C328.451 10.6322 328.559 10.3262 328.619 9.99024H330.725C330.629 10.5902 330.449 11.1302 330.185 11.6102C329.921 12.0902 329.585 12.5042 329.177 12.8522C328.769 13.2002 328.295 13.4702 327.755 13.6622C327.215 13.8422 326.621 13.9322 325.973 13.9322C325.241 13.9322 324.575 13.8062 323.975 13.5542C323.375 13.3022 322.859 12.9542 322.427 12.5102C322.007 12.0542 321.683 11.5142 321.455 10.8902C321.227 10.2662 321.113 9.57624 321.113 8.82024ZM331.14 11.1782C331.14 10.3862 331.41 9.76224 331.95 9.30624C332.502 8.83824 333.342 8.50224 334.47 8.29824L338.034 7.66824V7.57824C338.034 6.85824 337.83 6.31224 337.422 5.94024C337.014 5.56824 336.45 5.38224 335.73 5.38224C335.01 5.38224 334.452 5.56224 334.056 5.92224C333.66 6.27024 333.42 6.76224 333.336 7.39824H331.266C331.314 6.82224 331.452 6.31224 331.68 5.86824C331.92 5.41224 332.232 5.02824 332.616 4.71624C333 4.39224 333.456 4.14624 333.984 3.97824C334.512 3.81024 335.106 3.72624 335.766 3.72624C337.134 3.72624 338.19 4.08024 338.934 4.78824C339.678 5.48424 340.05 6.46824 340.05 7.74024V13.6982H338.196L338.142 12.2042C337.998 12.4562 337.8 12.6902 337.548 12.9062C337.308 13.1102 337.026 13.2902 336.702 13.4462C336.39 13.5902 336.036 13.7042 335.64 13.7882C335.256 13.8842 334.86 13.9322 334.452 13.9322C333.984 13.9322 333.546 13.8722 333.138 13.7522C332.742 13.6442 332.394 13.4762 332.094 13.2482C331.806 13.0202 331.572 12.7322 331.392 12.3842C331.224 12.0362 331.14 11.6342 331.14 11.1782ZM333.246 10.9802C333.246 11.4242 333.414 11.7602 333.75 11.9882C334.086 12.2042 334.524 12.3122 335.064 12.3122C335.52 12.3122 335.928 12.2462 336.288 12.1142C336.66 11.9822 336.972 11.7962 337.224 11.5562C337.476 11.3162 337.674 11.0342 337.818 10.7102C337.962 10.3742 338.034 10.0142 338.034 9.63024V9.03624L334.938 9.61224C334.302 9.72024 333.858 9.88824 333.606 10.1162C333.366 10.3322 333.246 10.6202 333.246 10.9802ZM341.695 10.3322V5.68824H340.147V3.96024H341.695V1.49424H343.729V3.96024H347.167V5.68824H343.729V10.3142C343.729 10.6502 343.765 10.9382 343.837 11.1782C343.909 11.4062 344.023 11.5922 344.179 11.7362C344.335 11.8802 344.533 11.9822 344.773 12.0422C345.025 12.1022 345.325 12.1322 345.673 12.1322C345.877 12.1322 346.105 12.1202 346.357 12.0962C346.621 12.0722 346.891 12.0362 347.167 11.9882V13.7162C346.771 13.7882 346.405 13.8422 346.069 13.8782C345.745 13.9142 345.439 13.9322 345.151 13.9322C344.563 13.9322 344.053 13.8602 343.621 13.7162C343.189 13.5722 342.829 13.3562 342.541 13.0682C342.253 12.7682 342.037 12.3902 341.893 11.9342C341.761 11.4782 341.695 10.9442 341.695 10.3322ZM347.954 13.6982V3.96024H349.952V13.6982H347.954ZM347.9 2.70024V0.576242H350.024V2.70024H347.9ZM350.927 8.82024C350.927 8.06424 351.041 7.37424 351.269 6.75024C351.497 6.12624 351.827 5.59224 352.259 5.14824C352.691 4.69224 353.207 4.34424 353.807 4.10424C354.407 3.85224 355.079 3.72624 355.823 3.72624C356.555 3.72624 357.221 3.85224 357.821 4.10424C358.421 4.34424 358.937 4.69224 359.369 5.14824C359.801 5.59224 360.131 6.12624 360.359 6.75024C360.599 7.37424 360.719 8.06424 360.719 8.82024C360.719 9.57624 360.599 10.2662 360.359 10.8902C360.131 11.5142 359.801 12.0542 359.369 12.5102C358.937 12.9542 358.421 13.3022 357.821 13.5542C357.221 13.8062 356.555 13.9322 355.823 13.9322C355.079 13.9322 354.407 13.8062 353.807 13.5542C353.207 13.3022 352.691 12.9542 352.259 12.5102C351.827 12.0542 351.497 11.5142 351.269 10.8902C351.041 10.2662 350.927 9.57624 350.927 8.82024ZM352.979 8.82024C352.979 9.32424 353.045 9.78624 353.177 10.2062C353.309 10.6142 353.495 10.9682 353.735 11.2682C353.975 11.5682 354.269 11.7962 354.617 11.9522C354.977 12.1082 355.379 12.1862 355.823 12.1862C356.267 12.1862 356.663 12.1082 357.011 11.9522C357.359 11.7962 357.653 11.5682 357.893 11.2682C358.145 10.9682 358.331 10.6142 358.451 10.2062C358.583 9.78624 358.649 9.32424 358.649 8.82024C358.649 8.31624 358.583 7.86024 358.451 7.45224C358.331 7.03224 358.145 6.67824 357.893 6.39024C357.653 6.09024 357.359 5.86224 357.011 5.70624C356.663 5.53824 356.267 5.45424 355.823 5.45424C355.379 5.45424 354.977 5.53824 354.617 5.70624C354.269 5.86224 353.975 6.09024 353.735 6.39024C353.495 6.67824 353.309 7.03224 353.177 7.45224C353.045 7.86024 352.979 8.31624 352.979 8.82024ZM361.612 13.6982V3.96024H363.466L363.52 5.70624C363.64 5.38224 363.802 5.10024 364.006 4.86024C364.21 4.60824 364.444 4.39824 364.708 4.23024C364.984 4.06224 365.284 3.93624 365.608 3.85224C365.944 3.76824 366.298 3.72624 366.67 3.72624C367.198 3.72624 367.678 3.81024 368.11 3.97824C368.542 4.14624 368.902 4.39224 369.19 4.71624C369.49 5.02824 369.718 5.41824 369.874 5.88624C370.042 6.34224 370.126 6.85224 370.126 7.41624V13.6982H368.11V8.11824C368.11 7.68624 368.068 7.30824 367.984 6.98424C367.9 6.64824 367.774 6.37224 367.606 6.15624C367.438 5.92824 367.228 5.76024 366.976 5.65224C366.724 5.54424 366.424 5.49024 366.076 5.49024C365.704 5.49024 365.368 5.55624 365.068 5.68824C364.768 5.80824 364.51 5.98224 364.294 6.21024C364.09 6.42624 363.928 6.69624 363.808 7.02024C363.7 7.34424 363.646 7.71024 363.646 8.11824V13.6982H361.612Z" fill="#585858"/>
</g>
</g>
<defs>
<linearGradient id="paint0_linear_816_171" x1="960" y1="588" x2="960" y2="4229" gradientUnits="userSpaceOnUse">
<stop stop-color="#FDFDFE"/>
<stop offset="1" stop-color="#F5EA69" stop-opacity="0.5"/>
</linearGradient>
</defs>
</svg>
